<svg xmlns="http://www.w3.org/2000/svg" width="180" height="180" viewBox="0 0 100 100">
  <path fill="#027e7e" d="M 65 75 C 63.5 65 58 60 54.5 58 C 54.4 58.4 54.3 58.8 54.2 59.2 C 54 59.6 53.9 60 53.7 60.4 C 53.5 60.8 53.3 61.2 53.1 61.5 C 52.9 61.9 52.6 62.2 52.4 62.6 C 52.1 62.9 51.8 63.3 51.5 63.6 C 51.2 63.9 50.9 64.2 50.5 64.5 C 50.2 64.8 49.8 65 49.4 65.3 C 49.1 65.5 48.7 65.8 48.3 66 C 47.9 66.2 47.5 66.4 47.1 66.6 C 46.7 66.8 46.2 66.9 45.8 67.1 C 45.4 67.2 44.9 67.4 44.5 67.5 C 44.1 67.6 43.6 67.7 43.2 67.8 C 42.8 67.9 42.3 67.9 41.9 68 C 41.5 68 41 68 40.6 68 C 40.2 68 39.7 67.9 39.3 67.9 C 38.9 67.8 38.5 67.8 38.1 67.7 C 37.7 67.6 37.3 67.5 36.9 67.3 C 36.5 67.2 36.2 67 35.8 66.8 C 35.4 66.6 35.1 66.4 34.7 66.2 C 34.4 66 34.1 65.7 33.7 65.5 C 33.4 65.2 33.1 64.9 32.8 64.6 C 32.5 64.3 32.2 63.9 31.9 63.6 C 31.7 63.2 31.4 62.9 31.2 62.5 C 30.9 62.1 30.7 61.7 30.5 61.3 C 30.3 60.9 30.1 60.5 30 60.1 C 29.8 59.7 29.7 59.2 29.5 58.8 C 29.4 58.4 29.3 58 29.2 57.5 C 29.1 57.1 29 56.7 29 56.2 C 28.9 55.8 28.9 55.3 28.9 54.9 C 28.8 54.4 28.8 54 28.9 53.5 C 28.9 53.1 28.9 52.7 29 52.3 C 28.1 51.5 27.4 50.5 26.8 49.5 C 26.1 48.4 25.6 47.3 25.3 46 C 25 44.8 24.8 43.6 24.8 42.4 C 24.8 41.2 24.9 40 25.2 38.8 C 25.5 37.6 26 36.5 26.6 35.4 C 27.2 34.4 28 33.4 28.9 32.5 C 29.8 31.6 30.8 30.9 31.9 30.3 C 33 29.7 34.2 29.2 35.4 29 C 35.5 28.3 35.7 27.6 36 26.9 C 36.3 26.3 36.6 25.6 37 25 C 37.4 24.4 37.8 23.8 38.3 23.2 C 38.8 22.7 39.3 22.2 39.9 21.7 C 40.5 21.2 41.1 20.8 41.7 20.4 C 42.4 20 43 19.7 43.7 19.4 C 44.4 19.1 45.1 18.9 45.8 18.7 C 46.5 18.5 47.2 18.4 48 18.3 C 49.7 18.1 51.3 18.2 52.9 18.6 C 54.5 19 55.9 19.7 57.3 20.6 C 57.5 20.4 57.7 20.2 58 20 C 58.2 19.8 58.5 19.6 58.7 19.4 C 59 19.2 59.2 19 59.5 18.9 C 59.8 18.7 60 18.5 60.3 18.4 C 60.6 18.2 60.8 18.1 61.1 18 C 61.4 17.8 61.7 17.7 62 17.6 C 62.3 17.5 62.5 17.4 62.8 17.3 C 63.1 17.2 63.4 17.1 63.7 17 C 64 16.9 64.3 16.9 64.6 16.8 C 64.9 16.8 65.2 16.7 65.5 16.7 C 65.8 16.7 66.1 16.7 66.4 16.7 C 66.7 16.7 67 16.7 67.3 16.7 C 67.6 16.7 67.9 16.7 68.2 16.8 C 68.5 16.8 68.8 16.9 69.1 16.9 C 69.4 17 69.7 17.1 70 17.2 C 70.3 17.2 70.6 17.3 70.9 17.4 C 71.2 17.5 71.5 17.6 71.8 17.8 C 72.1 17.9 72.3 18 72.6 18.2 C 72.9 18.3 73.2 18.5 73.4 18.7 C 73.7 18.9 74 19.1 74.2 19.3 C 74.5 19.5 74.7 19.7 75 19.9 C 75.2 20.1 75.4 20.4 75.7 20.6 C 75.9 20.8 76.1 21.1 76.3 21.3 C 76.5 21.6 76.7 21.8 76.9 22.1 C 77.1 22.3 77.3 22.6 77.5 22.9 C 77.7 23.2 77.8 23.4 78 23.7 C 78.2 24 78.3 24.3 78.5 24.6 C 78.6 24.9 78.8 25.2 78.9 25.5 C 79 25.8 79.1 26.1 79.2 26.4 C 79.3 26.7 79.4 27 79.5 27.4 C 80.3 27.5 81 27.6 81.8 27.9 C 82.5 28.1 83.3 28.4 84 28.8 C 84.7 29.2 85.4 29.6 86 30.1 C 86.6 30.6 87.2 31.2 87.7 31.8 C 88.3 32.4 88.7 33.1 89.1 33.8 C 89.5 34.5 89.9 35.3 90.2 36.1 C 90.5 36.9 90.7 37.7 90.8 38.5 C 91 39.3 91 40.1 91 41 C 91 41.8 90.9 42.6 90.8 43.5 C 90.6 44.3 90.4 45.1 90.2 45.9 C 89.9 46.7 89.5 47.4 89.1 48.1 C 88.7 48.8 88.2 49.5 87.7 50.1 C 87.1 50.7 86.5 51.3 85.9 51.8 C 85.2 52.3 84.5 52.8 83.8 53.2 C 83.1 53.6 82.3 53.9 81.5 54.2 C 80.7 54.4 79.9 54.6 79.1 54.7 L 68.5 56 L 67.9 52.3 L 78.5 51 C 79 50.9 79.5 50.8 80 50.6 C 80.5 50.4 81 50.2 81.4 50 C 81.9 49.7 82.4 49.4 82.8 49.1 C 83.2 48.7 83.6 48.3 84 47.9 C 84.3 47.5 84.6 47 84.9 46.5 C 85.2 46 85.4 45.5 85.5 45 C 85.7 44.5 85.8 43.9 85.9 43.4 C 85.9 42.8 86 42.3 85.9 41.7 C 85.9 41.2 85.8 40.6 85.7 40.1 C 85.5 39.5 85.4 39 85.1 38.5 C 84.9 38 84.6 37.5 84.3 37 C 84 36.6 83.6 36.1 83.2 35.7 C 82.8 35.3 82.4 35 81.9 34.7 C 81.4 34.4 80.9 34.1 80.4 33.9 C 79.9 33.7 79.3 33.5 78.8 33.4 C 78.2 33.3 77.7 33.2 77.1 33.2 L 75.2 33.2 L 74.9 31.3 C 74.7 30.4 74.4 29.6 74 28.8 C 73.6 28 73.1 27.3 72.5 26.7 C 71.9 26 71.2 25.5 70.4 25 C 69.6 24.6 68.8 24.3 67.9 24.1 C 67 23.9 66.1 23.9 65.2 24 C 64.3 24.1 63.4 24.3 62.6 24.7 C 61.8 25.1 61 25.6 60.4 26.2 C 59.7 26.8 59.1 27.5 58.7 28.3 L 57.2 31 L 55.1 28.9 C 54.5 28.3 53.8 27.8 53 27.3 C 52.2 26.9 51.4 26.6 50.6 26.4 C 49.7 26.2 48.8 26.2 48 26.3 C 47.1 26.3 46.2 26.5 45.4 26.9 C 44.6 27.2 43.8 27.7 43.1 28.3 C 42.4 28.8 41.8 29.5 41.3 30.2 C 40.8 31 40.4 31.8 40.2 32.7 C 39.9 33.5 39.8 34.4 39.8 35.3 L 39.8 37.4 L 37.6 37.6 C 37.5 37.6 37.4 37.6 37.4 37.6 C 36.5 37.7 35.6 38 34.8 38.4 C 34 38.8 33.2 39.3 32.5 39.9 C 31.9 40.5 31.3 41.2 30.8 42 C 30.4 42.8 30 43.6 29.8 44.5 C 29.6 45.4 29.5 46.3 29.6 47.2 C 29.6 48.1 29.8 49 30.1 49.8 C 30.4 50.7 30.9 51.5 31.4 52.2 C 32 52.9 32.7 53.5 33.4 54 L 34.7 55 L 34.3 56.5 C 34.3 56.8 34.2 57.1 34.2 57.5 C 34.1 57.8 34.1 58.1 34.1 58.5 C 34.1 58.8 34.1 59.1 34.1 59.4 C 34.1 59.8 34.2 60.1 34.2 60.4 C 34.3 60.7 34.4 61 34.5 61.3 C 34.6 61.6 34.7 61.9 34.8 62.2 C 35 62.5 35.1 62.8 35.3 63 C 35.5 63.3 35.6 63.6 35.8 63.8 C 36 64.1 36.2 64.3 36.5 64.6 C 36.7 64.8 37 65 37.2 65.2 C 37.5 65.4 37.7 65.6 38 65.8 C 38.3 66 38.6 66.1 38.9 66.3 C 39.2 66.4 39.5 66.6 39.8 66.7 C 40.1 66.8 40.4 66.9 40.7 66.9 C 41 67 41.3 67.1 41.6 67.1 C 41.9 67.1 42.3 67.1 42.6 67.1 C 42.9 67.1 43.2 67 43.5 67 C 43.8 66.9 44.2 66.9 44.5 66.8 C 44.8 66.7 45.1 66.6 45.4 66.5 C 45.7 66.3 46 66.2 46.3 66 C 46.6 65.8 46.8 65.6 47.1 65.4 C 47.4 65.2 47.7 65 47.9 64.8 C 48.2 64.5 48.4 64.3 48.6 64 C 48.9 63.7 49.1 63.5 49.3 63.2 C 49.5 62.9 49.7 62.6 49.8 62.3 C 50 62 50.2 61.7 50.3 61.3 C 50.5 61 50.6 60.7 50.7 60.3 C 50.8 60 50.9 59.6 51 59.3 C 51.1 58.9 51.1 58.5 51.2 58.2 C 51.2 57.8 51.2 57.5 51.2 57.1 C 51.2 56.8 51.2 56.4 51.1 56.1 L 50.7 52.7 L 54 53.6 C 54.5 53.7 66.9 57.2 69 75 Z"/>
</svg>
