<svg xmlns="http://www.w3.org/2000/svg" xmlns:xlink="http://www.w3.org/1999/xlink" width="350" zoomAndPan="magnify" viewBox="0 0 262.5 262.500001" height="350" preserveAspectRatio="xMidYMid meet" version="1.0"><defs><clipPath id="37d688d786"><path d="M 0 0 L 262 0 L 262 262 L 0 262 Z M 0 0 " clip-rule="nonzero"/></clipPath><clipPath id="b1f5e9278f"><path d="M 131 0 C 58.652344 0 0 58.652344 0 131 C 0 203.351562 58.652344 262 131 262 C 203.351562 262 262 203.351562 262 131 C 262 58.652344 203.351562 0 131 0 Z M 131 0 " clip-rule="nonzero"/></clipPath><clipPath id="ce390ec5d0"><path d="M 0 0 L 262 0 L 262 262 L 0 262 Z M 0 0 " clip-rule="nonzero"/></clipPath><clipPath id="11d3f69433"><path d="M 131 0 C 58.652344 0 0 58.652344 0 131 C 0 203.351562 58.652344 262 131 262 C 203.351562 262 262 203.351562 262 131 C 262 58.652344 203.351562 0 131 0 Z M 131 0 " clip-rule="nonzero"/></clipPath><clipPath id="54b5e27aae"><rect x="0" width="262" y="0" height="262"/></clipPath><clipPath id="03d4ebccf6"><path d="M 76 58.550781 L 88 58.550781 L 88 92 L 76 92 Z M 76 58.550781 " clip-rule="nonzero"/></clipPath><clipPath id="98e5d357b2"><path d="M 174 58.550781 L 185 58.550781 L 185 92 L 174 92 Z M 174 58.550781 " clip-rule="nonzero"/></clipPath></defs><g clip-path="url(#37d688d786)"><g clip-path="url(#b1f5e9278f)"><g transform="matrix(1, 0, 0, 1, 0, -0.00000000000000941)"><g clip-path="url(#54b5e27aae)"><g clip-path="url(#ce390ec5d0)"><g clip-path="url(#11d3f69433)"><rect x="-57.75" width="378" fill="#fad1b2" height="378.000001" y="-57.75" fill-opacity="1"/></g></g></g></g></g></g><path fill="#a6dbf4" d="M 54.917969 197.726562 C 54.917969 197.726562 137.339844 203.796875 207.34375 197.414062 C 207.34375 197.414062 209.351562 125.59375 206.964844 94.46875 L 50.238281 97.660156 C 50.238281 97.660156 47.757812 201.71875 54.917969 197.726562 Z M 54.917969 197.726562 " fill-opacity="1" fill-rule="nonzero"/><path fill="#f0879f" d="M 50.238281 72.921875 L 50.238281 109.632812 C 50.238281 109.632812 204.578125 104.84375 206.964844 107.238281 C 209.351562 109.632812 214.125 76.914062 209.351562 72.921875 C 204.578125 68.933594 50.238281 72.921875 50.238281 72.921875 Z M 50.238281 72.921875 " fill-opacity="1" fill-rule="nonzero"/><g clip-path="url(#03d4ebccf6)"><path fill="#a6dbf4" d="M 85.953125 58.558594 C 85.953125 58.558594 78.792969 58.558594 78 60.953125 C 77.203125 63.347656 76.007812 88.707031 78 90.390625 C 79.988281 92.074219 85.554688 92.695312 85.953125 90.390625 C 86.351562 88.085938 88.738281 62.148438 85.953125 58.558594 Z M 85.953125 58.558594 " fill-opacity="1" fill-rule="nonzero"/></g><g clip-path="url(#98e5d357b2)"><path fill="#a6dbf4" d="M 183.390625 58.558594 C 183.390625 58.558594 176.234375 58.558594 175.4375 60.953125 C 174.640625 63.347656 173.449219 88.707031 175.4375 90.390625 C 177.425781 92.074219 182.996094 92.695312 183.390625 90.390625 C 183.789062 88.085938 186.175781 62.148438 183.390625 58.558594 Z M 183.390625 58.558594 " fill-opacity="1" fill-rule="nonzero"/></g><path fill="#ffffff" d="M 63.164062 119.207031 C 63.164062 119.207031 59.980469 141.554688 63.164062 141.953125 C 66.34375 142.351562 84.710938 145.144531 86.269531 141.953125 C 87.824219 138.761719 88.292969 120.804688 86.269531 119.207031 C 84.246094 117.613281 65.945312 117.613281 63.164062 119.207031 Z M 63.164062 119.207031 " fill-opacity="1" fill-rule="nonzero"/><path fill="#ffffff" d="M 99.359375 119.207031 C 99.359375 119.207031 96.175781 141.554688 99.359375 141.953125 C 102.542969 142.351562 120.910156 145.144531 122.464844 141.953125 C 124.023438 138.761719 124.488281 120.804688 122.464844 119.207031 C 120.441406 117.613281 102.144531 117.613281 99.359375 119.207031 Z M 99.359375 119.207031 " fill-opacity="1" fill-rule="nonzero"/><path fill="#ffffff" d="M 135.558594 119.207031 C 135.558594 119.207031 132.375 141.554688 135.558594 141.953125 C 138.738281 142.351562 157.105469 145.144531 158.664062 141.953125 C 160.21875 138.761719 160.6875 120.804688 158.664062 119.207031 C 156.640625 117.613281 138.34375 117.613281 135.558594 119.207031 Z M 135.558594 119.207031 " fill-opacity="1" fill-rule="nonzero"/><path fill="#ffffff" d="M 171.753906 119.207031 C 171.753906 119.207031 168.574219 141.554688 171.753906 141.953125 C 174.9375 142.351562 193.304688 145.144531 194.859375 141.953125 C 196.417969 138.761719 196.886719 120.804688 194.859375 119.207031 C 192.835938 117.613281 174.539062 117.613281 171.753906 119.207031 Z M 171.753906 119.207031 " fill-opacity="1" fill-rule="nonzero"/><path fill="#ffffff" d="M 63.164062 155.117188 C 63.164062 155.117188 59.980469 177.464844 63.164062 177.863281 C 66.34375 178.261719 84.710938 181.054688 86.269531 177.863281 C 87.824219 174.671875 88.292969 156.714844 86.269531 155.117188 C 84.242188 153.523438 65.945312 153.523438 63.164062 155.117188 Z M 63.164062 155.117188 " fill-opacity="1" fill-rule="nonzero"/><path fill="#ffffff" d="M 99.359375 155.117188 C 99.359375 155.117188 96.175781 177.464844 99.359375 177.863281 C 102.542969 178.261719 120.910156 181.054688 122.464844 177.863281 C 124.023438 174.671875 124.488281 156.714844 122.464844 155.117188 C 120.441406 153.523438 102.144531 153.523438 99.359375 155.117188 Z M 99.359375 155.117188 " fill-opacity="1" fill-rule="nonzero"/><path fill="#ffffff" d="M 135.558594 155.117188 C 135.558594 155.117188 132.375 177.464844 135.558594 177.863281 C 138.738281 178.261719 157.105469 181.054688 158.664062 177.863281 C 160.21875 174.671875 160.6875 156.714844 158.664062 155.117188 C 156.640625 153.523438 138.34375 153.523438 135.558594 155.117188 Z M 135.558594 155.117188 " fill-opacity="1" fill-rule="nonzero"/><path fill="#ffffff" d="M 171.753906 155.117188 C 171.753906 155.117188 168.574219 177.464844 171.753906 177.863281 C 174.9375 178.261719 193.304688 181.054688 194.859375 177.863281 C 196.417969 174.671875 196.886719 156.714844 194.859375 155.117188 C 192.835938 153.523438 174.539062 153.523438 171.753906 155.117188 Z M 171.753906 155.117188 " fill-opacity="1" fill-rule="nonzero"/></svg>