<svg xmlns="http://www.w3.org/2000/svg" xmlns:xlink="http://www.w3.org/1999/xlink" width="350" zoomAndPan="magnify" viewBox="0 0 262.5 262.500001" height="350" preserveAspectRatio="xMidYMid meet" version="1.0"><defs><clipPath id="761633a795"><path d="M 0 0 L 262 0 L 262 262 L 0 262 Z M 0 0 " clip-rule="nonzero"/></clipPath><clipPath id="aa925efea5"><path d="M 131 0 C 58.652344 0 0 58.652344 0 131 C 0 203.351562 58.652344 262 131 262 C 203.351562 262 262 203.351562 262 131 C 262 58.652344 203.351562 0 131 0 Z M 131 0 " clip-rule="nonzero"/></clipPath><clipPath id="0515f334bb"><path d="M 0 0 L 262 0 L 262 262 L 0 262 Z M 0 0 " clip-rule="nonzero"/></clipPath><clipPath id="2db679d2d0"><path d="M 131 0 C 58.652344 0 0 58.652344 0 131 C 0 203.351562 58.652344 262 131 262 C 203.351562 262 262 203.351562 262 131 C 262 58.652344 203.351562 0 131 0 Z M 131 0 " clip-rule="nonzero"/></clipPath><clipPath id="1e3342de66"><rect x="0" width="262" y="0" height="262"/></clipPath></defs><g clip-path="url(#761633a795)"><g clip-path="url(#aa925efea5)"><g transform="matrix(1, 0, 0, 1, 0, -0.00000000000000941)"><g clip-path="url(#1e3342de66)"><g clip-path="url(#0515f334bb)"><g clip-path="url(#2db679d2d0)"><rect x="-57.75" width="378" fill="#fa92a0" height="378.000001" y="-57.75" fill-opacity="1"/></g></g></g></g></g></g><path fill="#aadaf8" d="M 115.113281 109.144531 C 115.113281 109.144531 198.394531 97.484375 213.554688 117.257812 C 225.992188 133.484375 227.074219 164.636719 214.636719 173.832031 C 202.195312 183.027344 183.265625 179.457031 183.265625 179.457031 C 183.265625 179.457031 197.328125 195.683594 195.164062 197.847656 C 193 200.011719 174.160156 189.734375 166.8125 183.785156 C 159.464844 177.835938 125.042969 183.425781 115.113281 179.996094 C 97.265625 173.832031 85.910156 148.085938 90.234375 130.777344 C 94.5625 113.46875 108.65625 109.613281 115.113281 109.144531 Z M 115.113281 109.144531 " fill-opacity="1" fill-rule="nonzero"/><path fill="#f4fbff" d="M 146.210938 73.984375 C 146.210938 73.984375 62.929688 62.324219 47.769531 82.097656 C 35.332031 98.324219 34.25 129.480469 46.6875 138.675781 C 59.128906 147.871094 78.058594 144.300781 78.058594 144.300781 C 78.058594 144.300781 63.996094 160.527344 66.160156 162.691406 C 68.324219 164.855469 87.167969 154.578125 94.511719 148.625 C 101.859375 142.675781 136.28125 148.269531 146.210938 144.839844 C 164.058594 138.675781 175.417969 112.929688 171.089844 95.621094 C 166.761719 78.3125 152.671875 74.457031 146.210938 73.984375 Z M 146.210938 73.984375 " fill-opacity="1" fill-rule="nonzero"/><path fill="#aadaf8" d="M 87.941406 106.003906 C 87.941406 106.003906 80.921875 109.140625 84.183594 111.457031 C 87.4375 113.773438 92.703125 113.023438 92.453125 110.015625 C 92.199219 107.003906 89.941406 104.917969 87.941406 106.003906 Z M 87.941406 106.003906 " fill-opacity="1" fill-rule="nonzero"/><path fill="#aadaf8" d="M 101.726562 106.363281 C 101.726562 106.363281 96.210938 110.433594 101.726562 112.191406 C 107.238281 113.945312 107.992188 110.878906 107.492188 109.277344 C 106.988281 107.675781 105.484375 104.550781 101.726562 106.363281 Z M 101.726562 106.363281 " fill-opacity="1" fill-rule="nonzero"/><path fill="#aadaf8" d="M 117.015625 105.816406 C 117.015625 105.816406 113.253906 107.277344 113.757812 110.035156 C 114.257812 112.789062 117.515625 113.640625 119.269531 112.714844 C 121.027344 111.789062 123.28125 109.28125 122.277344 107.777344 C 121.277344 106.273438 118.734375 104.8125 117.015625 105.816406 Z M 117.015625 105.816406 " fill-opacity="1" fill-rule="nonzero"/></svg>