<svg xmlns="http://www.w3.org/2000/svg" xmlns:xlink="http://www.w3.org/1999/xlink" width="350" zoomAndPan="magnify" viewBox="0 0 262.5 262.500001" height="350" preserveAspectRatio="xMidYMid meet" version="1.0"><defs><clipPath id="11bd3d71cb"><path d="M 0 0 L 262 0 L 262 262 L 0 262 Z M 0 0 " clip-rule="nonzero"/></clipPath><clipPath id="b9dc35fb4c"><path d="M 131 0 C 58.652344 0 0 58.652344 0 131 C 0 203.351562 58.652344 262 131 262 C 203.351562 262 262 203.351562 262 131 C 262 58.652344 203.351562 0 131 0 Z M 131 0 " clip-rule="nonzero"/></clipPath><clipPath id="82740f0094"><path d="M 0 0 L 262 0 L 262 262 L 0 262 Z M 0 0 " clip-rule="nonzero"/></clipPath><clipPath id="bf46b38711"><path d="M 131 0 C 58.652344 0 0 58.652344 0 131 C 0 203.351562 58.652344 262 131 262 C 203.351562 262 262 203.351562 262 131 C 262 58.652344 203.351562 0 131 0 Z M 131 0 " clip-rule="nonzero"/></clipPath><clipPath id="fd46bd72f4"><rect x="0" width="262" y="0" height="262"/></clipPath><clipPath id="ac21e5a666"><path d="M 57 75 L 195 75 L 195 208.863281 L 57 208.863281 Z M 57 75 " clip-rule="nonzero"/></clipPath><clipPath id="8ddea3b48b"><rect x="0" width="262" y="0" height="262"/></clipPath></defs><g transform="matrix(1, 0, 0, 1, 0, -0.00000000000000941)"><g clip-path="url(#8ddea3b48b)"><g clip-path="url(#11bd3d71cb)"><g clip-path="url(#b9dc35fb4c)"><g transform="matrix(1, 0, 0, 1, 0, -0.00000000000000941)"><g clip-path="url(#fd46bd72f4)"><g clip-path="url(#82740f0094)"><g clip-path="url(#bf46b38711)"><rect x="-95.55" width="453.6" fill="#fad1b2" y="-95.55" height="453.600002" fill-opacity="1"/></g></g></g></g></g></g><g clip-path="url(#ac21e5a666)"><path fill="#fb3838" d="M 127.625 210.015625 C 121.511719 207.085938 115.871094 203.878906 110.691406 200.453125 C 52.96875 156.328125 48.339844 97.921875 68.40625 84.515625 C 103.566406 61.03125 125.4375 102.289062 125.4375 102.289062 C 125.4375 102.289062 143.769531 59.03125 181.378906 82.664062 C 206.527344 98.457031 196.828125 176.875 127.625 210.015625 " fill-opacity="1" fill-rule="nonzero"/></g></g></g></svg>