<svg xmlns="http://www.w3.org/2000/svg" xmlns:xlink="http://www.w3.org/1999/xlink" width="350" zoomAndPan="magnify" viewBox="0 0 262.5 262.500001" height="350" preserveAspectRatio="xMidYMid meet" version="1.0"><path fill="#fa92a0" d="M 262 131 C 262 133.144531 261.949219 135.285156 261.84375 137.429688 C 261.738281 139.570312 261.582031 141.707031 261.371094 143.839844 C 261.160156 145.972656 260.898438 148.101562 260.582031 150.222656 C 260.269531 152.34375 259.902344 154.453125 259.484375 156.558594 C 259.066406 158.660156 258.597656 160.75 258.074219 162.832031 C 257.554688 164.910156 256.984375 166.976562 256.359375 169.027344 C 255.738281 171.078125 255.066406 173.113281 254.34375 175.132812 C 253.621094 177.152344 252.847656 179.152344 252.027344 181.132812 C 251.207031 183.113281 250.339844 185.074219 249.421875 187.011719 C 248.507812 188.949219 247.542969 190.863281 246.53125 192.753906 C 245.523438 194.644531 244.464844 196.507812 243.363281 198.347656 C 242.261719 200.1875 241.113281 201.996094 239.921875 203.78125 C 238.730469 205.5625 237.5 207.316406 236.222656 209.039062 C 234.945312 210.757812 233.625 212.449219 232.265625 214.105469 C 230.90625 215.761719 229.503906 217.386719 228.066406 218.976562 C 226.625 220.5625 225.148438 222.117188 223.632812 223.632812 C 222.117188 225.148438 220.5625 226.625 218.976562 228.066406 C 217.386719 229.503906 215.761719 230.90625 214.105469 232.265625 C 212.449219 233.625 210.757812 234.945312 209.039062 236.222656 C 207.316406 237.5 205.5625 238.730469 203.78125 239.921875 C 201.996094 241.113281 200.1875 242.261719 198.347656 243.363281 C 196.507812 244.464844 194.644531 245.523438 192.753906 246.53125 C 190.863281 247.542969 188.949219 248.507812 187.011719 249.421875 C 185.070312 250.339844 183.113281 251.207031 181.132812 252.027344 C 179.152344 252.847656 177.152344 253.621094 175.132812 254.34375 C 173.113281 255.066406 171.078125 255.738281 169.027344 256.359375 C 166.976562 256.984375 164.910156 257.554688 162.832031 258.074219 C 160.75 258.597656 158.660156 259.066406 156.558594 259.484375 C 154.453125 259.902344 152.34375 260.269531 150.222656 260.582031 C 148.101562 260.898438 145.972656 261.160156 143.839844 261.371094 C 141.707031 261.582031 139.570312 261.738281 137.429688 261.84375 C 135.285156 261.949219 133.144531 262 131 262 C 128.855469 262 126.714844 261.949219 124.574219 261.84375 C 122.429688 261.738281 120.292969 261.582031 118.160156 261.371094 C 116.027344 261.160156 113.898438 260.898438 111.777344 260.582031 C 109.65625 260.269531 107.546875 259.902344 105.445312 259.484375 C 103.339844 259.066406 101.25 258.597656 99.171875 258.074219 C 97.089844 257.554688 95.023438 256.984375 92.972656 256.359375 C 90.921875 255.738281 88.886719 255.066406 86.867188 254.34375 C 84.847656 253.621094 82.847656 252.847656 80.867188 252.027344 C 78.886719 251.207031 76.929688 250.339844 74.992188 249.421875 C 73.050781 248.507812 71.136719 247.542969 69.246094 246.53125 C 67.355469 245.523438 65.492188 244.464844 63.652344 243.363281 C 61.8125 242.261719 60.003906 241.113281 58.21875 239.921875 C 56.4375 238.730469 54.6875 237.5 52.964844 236.222656 C 51.242188 234.945312 49.550781 233.625 47.894531 232.265625 C 46.238281 230.90625 44.613281 229.503906 43.027344 228.066406 C 41.4375 226.625 39.886719 225.148438 38.371094 223.632812 C 36.851562 222.117188 35.375 220.5625 33.933594 218.976562 C 32.496094 217.386719 31.097656 215.761719 29.734375 214.105469 C 28.375 212.449219 27.058594 210.757812 25.78125 209.039062 C 24.503906 207.316406 23.269531 205.5625 22.078125 203.78125 C 20.886719 201.996094 19.738281 200.1875 18.636719 198.347656 C 17.535156 196.507812 16.480469 194.644531 15.46875 192.753906 C 14.457031 190.863281 13.492188 188.949219 12.578125 187.011719 C 11.660156 185.074219 10.792969 183.113281 9.972656 181.132812 C 9.152344 179.152344 8.378906 177.152344 7.65625 175.132812 C 6.933594 173.113281 6.261719 171.078125 5.640625 169.027344 C 5.019531 166.976562 4.445312 164.910156 3.925781 162.832031 C 3.40625 160.75 2.933594 158.660156 2.515625 156.558594 C 2.097656 154.453125 1.734375 152.34375 1.417969 150.222656 C 1.101562 148.101562 0.839844 145.972656 0.628906 143.839844 C 0.421875 141.707031 0.261719 139.570312 0.15625 137.429688 C 0.0507812 135.285156 0 133.144531 0 131 C 0 128.855469 0.0507812 126.714844 0.15625 124.574219 C 0.261719 122.429688 0.421875 120.292969 0.628906 118.160156 C 0.839844 116.027344 1.101562 113.898438 1.417969 111.777344 C 1.734375 109.65625 2.097656 107.546875 2.515625 105.445312 C 2.933594 103.339844 3.40625 101.25 3.925781 99.171875 C 4.445312 97.089844 5.019531 95.023438 5.640625 92.972656 C 6.261719 90.921875 6.933594 88.886719 7.65625 86.867188 C 8.378906 84.847656 9.152344 82.847656 9.972656 80.867188 C 10.792969 78.886719 11.660156 76.929688 12.578125 74.992188 C 13.492188 73.050781 14.457031 71.136719 15.46875 69.246094 C 16.480469 67.355469 17.535156 65.492188 18.636719 63.652344 C 19.738281 61.8125 20.886719 60.003906 22.078125 58.21875 C 23.269531 56.4375 24.503906 54.6875 25.78125 52.964844 C 27.058594 51.242188 28.375 49.550781 29.734375 47.894531 C 31.097656 46.238281 32.496094 44.613281 33.933594 43.027344 C 35.375 41.4375 36.851562 39.886719 38.371094 38.371094 C 39.886719 36.851562 41.4375 35.375 43.027344 33.933594 C 44.613281 32.496094 46.238281 31.097656 47.894531 29.734375 C 49.550781 28.375 51.242188 27.058594 52.964844 25.78125 C 54.6875 24.503906 56.4375 23.269531 58.21875 22.078125 C 60.003906 20.886719 61.8125 19.738281 63.652344 18.636719 C 65.492188 17.535156 67.355469 16.480469 69.246094 15.46875 C 71.136719 14.457031 73.050781 13.492188 74.992188 12.578125 C 76.929688 11.660156 78.886719 10.792969 80.867188 9.972656 C 82.847656 9.152344 84.847656 8.378906 86.867188 7.65625 C 88.886719 6.933594 90.921875 6.261719 92.972656 5.640625 C 95.023438 5.019531 97.089844 4.445312 99.171875 3.925781 C 101.25 3.40625 103.339844 2.933594 105.445312 2.515625 C 107.546875 2.097656 109.65625 1.734375 111.777344 1.417969 C 113.898438 1.101562 116.027344 0.839844 118.160156 0.628906 C 120.292969 0.421875 122.429688 0.261719 124.574219 0.15625 C 126.714844 0.0507812 128.855469 0 131 0 C 133.144531 0 135.285156 0.0507812 137.429688 0.15625 C 139.570312 0.261719 141.707031 0.421875 143.839844 0.628906 C 145.972656 0.839844 148.101562 1.101562 150.222656 1.417969 C 152.34375 1.734375 154.453125 2.097656 156.558594 2.515625 C 158.660156 2.933594 160.75 3.40625 162.832031 3.925781 C 164.910156 4.445312 166.976562 5.019531 169.027344 5.640625 C 171.078125 6.261719 173.113281 6.933594 175.132812 7.65625 C 177.152344 8.378906 179.152344 9.152344 181.132812 9.972656 C 183.113281 10.792969 185.070312 11.660156 187.011719 12.578125 C 188.949219 13.492188 190.863281 14.457031 192.753906 15.46875 C 194.644531 16.480469 196.507812 17.535156 198.347656 18.636719 C 200.1875 19.738281 201.996094 20.886719 203.78125 22.078125 C 205.5625 23.269531 207.316406 24.503906 209.039062 25.78125 C 210.757812 27.058594 212.449219 28.375 214.105469 29.734375 C 215.761719 31.097656 217.386719 32.496094 218.976562 33.933594 C 220.5625 35.375 222.117188 36.851562 223.632812 38.371094 C 225.148438 39.886719 226.625 41.4375 228.066406 43.027344 C 229.503906 44.613281 230.90625 46.238281 232.265625 47.894531 C 233.625 49.550781 234.945312 51.242188 236.222656 52.964844 C 237.5 54.6875 238.730469 56.4375 239.921875 58.21875 C 241.113281 60.003906 242.261719 61.8125 243.363281 63.652344 C 244.464844 65.492188 245.523438 67.355469 246.53125 69.246094 C 247.542969 71.136719 248.507812 73.050781 249.421875 74.992188 C 250.339844 76.929688 251.207031 78.886719 252.027344 80.867188 C 252.847656 82.847656 253.621094 84.847656 254.34375 86.867188 C 255.066406 88.886719 255.738281 90.921875 256.359375 92.972656 C 256.984375 95.023438 257.554688 97.089844 258.074219 99.171875 C 258.597656 101.25 259.066406 103.339844 259.484375 105.445312 C 259.902344 107.546875 260.269531 109.65625 260.582031 111.777344 C 260.898438 113.898438 261.160156 116.027344 261.371094 118.160156 C 261.582031 120.292969 261.738281 122.429688 261.84375 124.574219 C 261.949219 126.714844 262 128.855469 262 131 Z M 262 131 " fill-opacity="1" fill-rule="nonzero"/><path fill="#a6a6a6" d="M 160.433594 205.496094 L 88.121094 205.496094 C 80.957031 205.496094 75.105469 199.730469 75.105469 192.484375 L 75.105469 80.257812 C 75.105469 73.097656 80.871094 67.246094 88.121094 67.246094 L 90.304688 67.246094 C 91.261719 67.246094 92.050781 68.03125 92.050781 68.992188 L 92.050781 69.519531 C 92.050781 69.953125 91.789062 70.476562 91.4375 70.742188 L 170.824219 191.433594 C 171.085938 191.261719 171.4375 191.171875 171.699219 191.171875 C 172.660156 191.261719 173.445312 192.046875 173.355469 193.007812 C 173.183594 199.90625 167.332031 205.496094 160.433594 205.496094 Z M 160.433594 205.496094 " fill-opacity="1" fill-rule="evenodd"/><path fill="#f4fbff" d="M 173.882812 194.667969 L 101.570312 194.667969 C 94.40625 194.667969 88.554688 188.902344 88.554688 181.742188 L 88.554688 69.519531 C 88.554688 62.355469 94.320312 56.503906 101.570312 56.503906 L 156.765625 56.503906 C 157.722656 56.503906 158.511719 57.289062 158.511719 58.25 C 158.511719 58.511719 158.511719 58.777344 158.335938 59.039062 L 184.1875 85.148438 C 184.449219 84.886719 184.796875 84.800781 185.148438 84.800781 C 186.109375 84.800781 186.894531 85.585938 186.894531 86.546875 L 186.894531 181.742188 C 186.894531 188.902344 181.042969 194.667969 173.882812 194.667969 Z M 173.882812 194.667969 " fill-opacity="1" fill-rule="evenodd"/><path fill="#a6a6a6" d="M 185.148438 88.292969 L 168.03125 88.292969 C 160.867188 88.292969 155.015625 82.441406 155.015625 75.367188 L 155.015625 58.25 C 155.015625 57.554688 155.453125 56.855469 156.066406 56.59375 C 156.765625 56.332031 157.460938 56.503906 157.988281 57.027344 L 186.371094 85.324219 C 186.894531 85.761719 186.980469 86.546875 186.71875 87.160156 C 186.457031 87.859375 185.847656 88.292969 185.148438 88.292969 Z M 185.148438 88.292969 " fill-opacity="1" fill-rule="evenodd"/><path fill="#fb3838" d="M 142.964844 117.726562 L 102.179688 117.726562 C 101.21875 117.726562 100.433594 116.941406 100.433594 115.980469 C 100.433594 115.019531 101.21875 114.234375 102.179688 114.234375 L 142.964844 114.234375 C 143.925781 114.234375 144.710938 115.019531 144.710938 115.980469 C 144.710938 116.941406 143.925781 117.726562 142.964844 117.726562 Z M 142.964844 117.726562 " fill-opacity="1" fill-rule="evenodd"/><path fill="#fb3838" d="M 122.878906 106.285156 C 117.289062 106.285156 112.660156 101.742188 112.660156 96.15625 C 112.660156 95.195312 113.445312 94.40625 114.40625 94.40625 C 115.367188 94.40625 116.152344 95.195312 116.152344 96.15625 C 116.152344 99.824219 119.210938 102.792969 122.878906 102.792969 C 126.632812 102.792969 129.601562 99.824219 129.601562 96.15625 C 129.601562 92.398438 126.632812 89.429688 122.878906 89.429688 C 117.289062 89.429688 112.660156 84.800781 112.660156 79.210938 C 112.660156 73.535156 117.289062 68.992188 122.878906 68.992188 C 128.554688 68.992188 133.097656 73.535156 133.097656 79.210938 C 133.097656 80.171875 132.308594 80.957031 131.351562 80.957031 C 130.390625 80.957031 129.601562 80.171875 129.601562 79.210938 C 129.601562 75.457031 126.632812 72.488281 122.878906 72.488281 C 119.125 72.488281 116.152344 75.367188 116.152344 79.210938 C 116.152344 82.878906 119.210938 85.9375 122.878906 85.9375 C 128.554688 85.9375 133.097656 90.476562 133.097656 96.15625 C 133.097656 101.742188 128.554688 106.285156 122.878906 106.285156 Z M 122.878906 106.285156 " fill-opacity="1" fill-rule="evenodd"/><path fill="#fb3838" d="M 122.527344 109.078125 C 121.570312 109.078125 120.78125 108.292969 120.78125 107.332031 L 120.78125 67.945312 C 120.78125 66.984375 121.570312 66.199219 122.527344 66.199219 C 123.488281 66.199219 124.277344 66.984375 124.277344 67.945312 L 124.277344 107.332031 C 124.277344 108.292969 123.488281 109.078125 122.527344 109.078125 Z M 122.527344 109.078125 " fill-opacity="1" fill-rule="evenodd"/><path fill="#605b5b" d="M 175.976562 151.4375 L 99.472656 151.4375 C 98.511719 151.4375 97.726562 150.652344 97.726562 149.691406 C 97.726562 148.730469 98.511719 147.941406 99.472656 147.941406 L 175.976562 147.941406 C 176.9375 147.941406 177.722656 148.730469 177.722656 149.691406 C 177.722656 150.652344 176.9375 151.4375 175.976562 151.4375 Z M 175.976562 151.4375 " fill-opacity="1" fill-rule="evenodd"/><path fill="#605b5b" d="M 175.976562 166.195312 L 99.472656 166.195312 C 98.511719 166.195312 97.726562 165.410156 97.726562 164.449219 C 97.726562 163.488281 98.511719 162.703125 99.472656 162.703125 L 175.976562 162.703125 C 176.9375 162.703125 177.722656 163.488281 177.722656 164.449219 C 177.722656 165.410156 176.9375 166.195312 175.976562 166.195312 Z M 175.976562 166.195312 " fill-opacity="1" fill-rule="evenodd"/><path fill="#605b5b" d="M 175.976562 180.957031 L 99.472656 180.957031 C 98.511719 180.957031 97.726562 180.167969 97.726562 179.207031 C 97.726562 178.246094 98.511719 177.460938 99.472656 177.460938 L 175.976562 177.460938 C 176.9375 177.460938 177.722656 178.246094 177.722656 179.207031 C 177.722656 180.167969 176.9375 180.957031 175.976562 180.957031 Z M 175.976562 180.957031 " fill-opacity="1" fill-rule="evenodd"/><path fill="#605b5b" d="M 174.316406 137.8125 L 101.132812 137.8125 C 100.171875 137.8125 99.386719 137.027344 99.386719 136.066406 L 99.386719 125.0625 C 99.386719 124.101562 100.171875 123.316406 101.132812 123.316406 L 174.316406 123.316406 C 175.277344 123.316406 176.066406 124.101562 176.066406 125.0625 L 176.066406 136.066406 C 176.066406 137.113281 175.277344 137.8125 174.316406 137.8125 Z M 174.316406 137.8125 " fill-opacity="1" fill-rule="evenodd"/></svg>