<svg xmlns="http://www.w3.org/2000/svg" xmlns:xlink="http://www.w3.org/1999/xlink" width="350" zoomAndPan="magnify" viewBox="0 0 262.5 262.500001" height="350" preserveAspectRatio="xMidYMid meet" version="1.0"><defs><clipPath id="ab62c2599b"><path d="M 0 0 L 262 0 L 262 262 L 0 262 Z M 0 0 " clip-rule="nonzero"/></clipPath><clipPath id="a002c6e80d"><path d="M 131 0 C 58.652344 0 0 58.652344 0 131 C 0 203.351562 58.652344 262 131 262 C 203.351562 262 262 203.351562 262 131 C 262 58.652344 203.351562 0 131 0 Z M 131 0 " clip-rule="nonzero"/></clipPath><clipPath id="49e5aa824a"><path d="M 0 0 L 262 0 L 262 262 L 0 262 Z M 0 0 " clip-rule="nonzero"/></clipPath><clipPath id="22dacc7c58"><path d="M 131 0 C 58.652344 0 0 58.652344 0 131 C 0 203.351562 58.652344 262 131 262 C 203.351562 262 262 203.351562 262 131 C 262 58.652344 203.351562 0 131 0 Z M 131 0 " clip-rule="nonzero"/></clipPath><clipPath id="631a49e82f"><rect x="0" width="262" y="0" height="262"/></clipPath><clipPath id="fa90846dae"><path d="M 158 158 L 216.035156 158 L 216.035156 216.035156 L 158 216.035156 Z M 158 158 " clip-rule="nonzero"/></clipPath><clipPath id="9e424937e7"><path d="M 46.109375 46.109375 L 173 46.109375 L 173 173 L 46.109375 173 Z M 46.109375 46.109375 " clip-rule="nonzero"/></clipPath></defs><g clip-path="url(#ab62c2599b)"><g clip-path="url(#a002c6e80d)"><g transform="matrix(1, 0, 0, 1, 0, -0.00000000000000941)"><g clip-path="url(#631a49e82f)"><g clip-path="url(#49e5aa824a)"><g clip-path="url(#22dacc7c58)"><rect x="-57.75" width="378" fill="#b9dfc7" height="378.000001" y="-57.75" fill-opacity="1"/></g></g></g></g></g></g><path fill="#5d6d7e" d="M 147.71875 157.472656 L 151.894531 161.652344 L 156.777344 166.507812 L 158.65625 168.402344 L 168.398438 158.65625 L 157.476562 147.714844 Z M 147.71875 157.472656 " fill-opacity="1" fill-rule="nonzero"/><g clip-path="url(#fa90846dae)"><path fill="#ff8e31" d="M 178.332031 158.589844 L 211.945312 192.203125 C 214.476562 194.726562 216.042969 198.226562 216.035156 202.074219 C 216.035156 205.933594 214.476562 209.429688 211.945312 211.960938 C 209.425781 214.480469 205.933594 216.035156 202.078125 216.035156 C 198.222656 216.035156 194.734375 214.480469 192.203125 211.953125 L 158.589844 178.335938 Z M 178.332031 158.589844 " fill-opacity="1" fill-rule="nonzero"/></g><path fill="#fece59" d="M 173.691406 163.238281 L 176.425781 160.5 L 210.042969 194.117188 C 212.164062 196.242188 213.332031 199.066406 213.332031 202.074219 C 213.332031 205.089844 212.160156 207.917969 210.042969 210.046875 C 209.65625 210.417969 209.160156 210.605469 208.671875 210.605469 C 208.175781 210.605469 207.683594 210.417969 207.296875 210.042969 C 206.550781 209.28125 206.550781 208.066406 207.296875 207.316406 C 208.699219 205.917969 209.464844 204.046875 209.464844 202.070312 C 209.472656 200.097656 208.703125 198.242188 207.308594 196.851562 Z M 173.691406 163.238281 " fill-opacity="1" fill-rule="nonzero"/><path fill="#34495e" d="M 158.589844 178.335938 L 178.332031 158.589844 L 176.859375 157.113281 C 175.972656 156.222656 174.757812 155.679688 173.40625 155.679688 C 172.046875 155.679688 170.828125 156.21875 169.945312 157.105469 L 157.109375 169.949219 C 156.226562 170.828125 155.675781 172.042969 155.675781 173.40625 C 155.675781 174.746094 156.226562 175.980469 157.109375 176.851562 Z M 158.589844 178.335938 " fill-opacity="1" fill-rule="nonzero"/><g clip-path="url(#9e424937e7)"><path fill="#34495e" d="M 46.109375 109.21875 C 46.109375 74.371094 74.367188 46.109375 109.222656 46.109375 C 144.082031 46.109375 172.339844 74.371094 172.339844 109.21875 C 172.339844 144.082031 144.078125 172.335938 109.222656 172.34375 C 74.367188 172.335938 46.109375 144.078125 46.109375 109.21875 Z M 46.109375 109.21875 " fill-opacity="1" fill-rule="nonzero"/></g><path fill="#5d6d7e" d="M 109.222656 165.507812 C 140.300781 165.507812 165.503906 140.308594 165.503906 109.21875 C 165.503906 78.148438 140.300781 52.941406 109.222656 52.941406 C 78.140625 52.941406 52.9375 78.144531 52.9375 109.21875 C 52.9375 140.308594 78.140625 165.507812 109.222656 165.507812 Z M 109.222656 165.507812 " fill-opacity="1" fill-rule="nonzero"/><path fill="#cee2f2" d="M 109.222656 161.003906 C 137.8125 161.003906 161 137.824219 161 109.21875 C 161 80.636719 137.8125 57.445312 109.222656 57.445312 C 80.632812 57.445312 57.445312 80.636719 57.445312 109.21875 C 57.445312 137.824219 80.625 161.003906 109.222656 161.003906 Z M 109.222656 161.003906 " fill-opacity="1" fill-rule="nonzero"/><path fill="#ffffff" d="M 110.585938 65.945312 C 109.703125 64.636719 108.1875 63.820312 106.519531 63.914062 C 99.371094 64.347656 92.617188 66.359375 86.445312 69.945312 C 84.273438 71.214844 83.527344 74.015625 84.792969 76.199219 C 86.058594 78.355469 88.863281 79.125 91.03125 77.839844 C 95.953125 75 101.34375 73.386719 107.054688 73.039062 C 109.566406 72.90625 111.496094 70.742188 111.339844 68.234375 C 111.3125 67.367188 111.019531 66.585938 110.585938 65.945312 Z M 110.585938 65.945312 " fill-opacity="1" fill-rule="nonzero"/><path fill="#ffffff" d="M 81.269531 80.957031 C 81.023438 80.59375 80.707031 80.253906 80.359375 79.964844 C 78.402344 78.363281 75.527344 78.675781 73.941406 80.632812 C 69.277344 86.359375 66.066406 93.230469 64.652344 100.542969 C 62.972656 109.226562 63.851562 118.117188 67.179688 126.265625 C 68.152344 128.613281 70.820312 129.714844 73.152344 128.757812 C 75.488281 127.808594 76.601562 125.148438 75.644531 122.800781 C 72.988281 116.304688 72.300781 109.207031 73.648438 102.277344 C 74.75 96.4375 77.316406 90.960938 81.035156 86.390625 C 82.332031 84.796875 82.363281 82.566406 81.269531 80.957031 Z M 81.269531 80.957031 " fill-opacity="1" fill-rule="nonzero"/></svg>