<svg xmlns="http://www.w3.org/2000/svg" width="40" height="40" viewBox="0 0 40 40">
  <circle cx="20" cy="20" r="20" fill="#FEE2E2"/>
  <path d="M20 8C14.48 8 10 12.48 10 18C10 23.52 14.48 28 20 28C25.52 28 30 23.52 30 18C30 12.48 25.52 8 20 8ZM20 26C15.59 26 12 22.41 12 18C12 13.59 15.59 10 20 10C24.41 10 28 13.59 28 18C28 22.41 24.41 26 20 26Z" fill="#EF4444"/>
  <path d="M20 24C20.83 24 21.5 23.33 21.5 22.5C21.5 21.67 20.83 21 20 21C19.17 21 18.5 21.67 18.5 22.5C18.5 23.33 19.17 24 20 24Z" fill="#EF4444"/>
  <path d="M20 12C17.79 12 16 13.79 16 16H18C18 14.9 18.9 14 20 14C21.1 14 22 14.9 22 16C22 17.1 21.1 18 20 18C19.45 18 19 18.45 19 19V20H21V19.5C22.72 18.89 24 17.28 24 16C24 13.79 22.21 12 20 12Z" fill="#EF4444"/>
</svg>