<svg xmlns="http://www.w3.org/2000/svg" width="40" height="40" viewBox="0 0 40 40">
  <circle cx="20" cy="20" r="20" fill="#FEF3C7"/>
  <path d="M20 8C15.58 8 12 11.58 12 16C12 18.76 13.36 21.2 15.5 22.64V26C15.5 26.55 15.95 27 16.5 27H23.5C24.05 27 24.5 26.55 24.5 26V22.64C26.64 21.2 28 18.76 28 16C28 11.58 24.42 8 20 8ZM23.5 21.23L22.5 21.87V25H17.5V21.87L16.5 21.23C14.93 20.16 14 18.15 14 16C14 12.69 16.69 10 20 10C23.31 10 26 12.69 26 16C26 18.15 25.07 20.16 23.5 21.23Z" fill="#F59E0B"/>
  <rect x="16" y="29" width="8" height="2" rx="1" fill="#F59E0B"/>
</svg>