<svg xmlns="http://www.w3.org/2000/svg" width="350" viewBox="0 0 262.5 262.5" height="350" preserveAspectRatio="xMidYMid meet" version="1.0">
  <defs>
    <clipPath id="circle-clip">
      <circle cx="131" cy="131" r="131"/>
    </clipPath>
  </defs>
  <!-- Background circle -->
  <g clip-path="url(#circle-clip)">
    <rect x="0" y="0" width="262.5" height="262.5" fill="#e9d5ff" fill-opacity="1"/>
  </g>
  <!-- Crown/Premium badge -->
  <g transform="translate(131, 125)">
    <!-- Crown base -->
    <path d="M-70 30 L-60 -20 L-35 10 L0 -50 L35 10 L60 -20 L70 30 Z" fill="#41005c"/>
    <!-- Crown jewels -->
    <circle cx="-60" cy="-20" r="10" fill="#f0879f"/>
    <circle cx="60" cy="-20" r="10" fill="#f0879f"/>
    <circle cx="0" cy="-50" r="12" fill="#f0879f"/>
    <circle cx="-35" cy="10" r="8" fill="#a6dbf4"/>
    <circle cx="35" cy="10" r="8" fill="#a6dbf4"/>
    <!-- Crown band -->
    <rect x="-70" y="30" width="140" height="25" rx="5" fill="#41005c"/>
    <!-- Band decoration -->
    <circle cx="-45" cy="42" r="6" fill="#f0879f"/>
    <circle cx="0" cy="42" r="8" fill="#f0879f"/>
    <circle cx="45" cy="42" r="6" fill="#f0879f"/>
    <!-- Small diamonds -->
    <path d="M-22 42 L-18 38 L-14 42 L-18 46 Z" fill="#a6dbf4"/>
    <path d="M22 42 L26 38 L30 42 L26 46 Z" fill="#a6dbf4"/>
    <!-- Stars around crown -->
    <path d="M-85 -10 L-82 -3 L-75 -3 L-80 2 L-78 9 L-85 5 L-92 9 L-90 2 L-95 -3 L-88 -3 Z" fill="#f0879f" opacity="0.7"/>
    <path d="M85 -10 L88 -3 L95 -3 L90 2 L92 9 L85 5 L78 9 L80 2 L75 -3 L82 -3 Z" fill="#f0879f" opacity="0.7"/>
    <path d="M0 -85 L4 -75 L14 -75 L6 -68 L9 -58 L0 -64 L-9 -58 L-6 -68 L-14 -75 L-4 -75 Z" fill="#f0879f" opacity="0.7"/>
  </g>
</svg>